<?xml version="1.0" encoding="UTF-8" standalone="no"?>
<!-- Created with Inkscape (http://www.inkscape.org/) -->

<svg
   width="420mm"
   height="600mm"
   viewBox="0 0 420 600"
   version="1.1"
   id="svg5"
   inkscape:version="1.1.2 (b8e25be8, 2022-02-05)"
   sodipodi:docname="Front_2_And_Front_3.svg"
   xmlns:inkscape="http://www.inkscape.org/namespaces/inkscape"
   xmlns:sodipodi="http://sodipodi.sourceforge.net/DTD/sodipodi-0.dtd"
   xmlns="http://www.w3.org/2000/svg"
   xmlns:svg="http://www.w3.org/2000/svg">
  <sodipodi:namedview
     id="namedview7"
     pagecolor="#505050"
     bordercolor="#eeeeee"
     borderopacity="1"
     inkscape:pageshadow="0"
     inkscape:pageopacity="0"
     inkscape:pagecheckerboard="0"
     inkscape:document-units="mm"
     showgrid="true"
     inkscape:zoom="0.34842195"
     inkscape:cx="582.6269"
     inkscape:cy="1017.4445"
     inkscape:window-width="1680"
     inkscape:window-height="919"
     inkscape:window-x="0"
     inkscape:window-y="25"
     inkscape:window-maximized="0"
     inkscape:current-layer="g25709" />
  <defs
     id="defs2" />
  <g
     inkscape:label="Ebene 1"
     id="layer1">
    <g
       id="g3378"
       transform="translate(-347.18587,-44.003678)">
      <g
         id="layer2"
         inkscape:label="Platten_größe"
         style="display:inline">
        <rect
           style="display:none;fill:#000000;fill-opacity:1;stroke:#000000;stroke-width:0.0141111;stroke-opacity:1"
           id="rect1103"
           width="425.94803"
           height="600.52319"
           x="0.18013105"
           y="0.17834148"
           inkscape:label="platte"
           sodipodi:insensitive="true" />
      </g>
      <g
         inkscape:label="Ebene 1"
         id="layer1-2"
         style="display:inline"
         transform="translate(-133.69421,-5.5705922)">
        <g
           id="g25709"
           inkscape:label="Front_Oben"
           transform="translate(-27.323428,164.50193)"
           style="stroke-width:0.7;stroke-miterlimit:4;stroke-dasharray:none">
          <path
             id="rect22444"
             style="fill:none;fill-opacity:1;stroke:#000000;stroke-width:0.1511811;stroke-miterlimit:4;stroke-dasharray:none;stroke-opacity:1"
             d="M 18.210938,16.798828 V 92.386719 H 33.328125 V 167.97852 H 18.210938 v 75.58984 h 15.117187 v 75.5918 H 18.210938 V 394.75 h 15.117187 v 56.69336 H 18.210938 v 75.58984 h 15.117187 v 56.69336 H 18.210938 v 75.5918 H 33.328125 V 734.9082 H 18.210938 v 75.58985 h 15.117187 v 75.59179 H 18.210938 v 75.58985 H 93.800781 V 946.5625 h 75.591799 v 15.11719 h 75.58984 V 946.5625 h 75.58985 v 15.11719 h 75.58984 V 946.5625 h 75.5918 v 15.11719 h 75.58984 V 946.5625 h 75.58984 v 15.11719 h 75.5918 V 946.5625 h 56.69141 v 15.11719 h 37.79687 V 946.5625 h 56.69336 v 15.11719 h 75.58985 V 946.5625 h 75.58982 v 15.11719 h 75.5918 V 946.5625 h 75.5899 v 15.11719 h 75.5898 V 946.5625 h 75.5918 v 15.11719 h 75.5898 V 946.5625 h 75.5918 v 15.11719 h 75.5899 v -75.58985 h -15.1192 V 810.5 h 15.1192 v -75.5918 h -15.1192 v -75.58984 h 15.1192 v -75.58984 h -15.1192 v -56.69336 h 15.1192 v -75.5918 h -15.1192 V 394.75 h 15.1192 v -75.58984 h -15.1192 v -75.58985 h 15.1192 v -75.59179 h -15.1192 V 92.388672 h 15.1192 V 16.798828 h -75.5899 v 15.117188 h -75.5918 V 16.798828 H 1303.25 v 15.117188 h -75.5898 V 16.798828 h -75.5918 v 15.117188 h -75.5899 V 16.798828 h -75.5898 V 31.916016 H 925.29688 V 16.798828 H 849.70703 V 31.916016 H 793.01367 V 16.798828 H 755.21875 V 31.916016 H 698.52539 V 16.798828 h -75.5918 V 31.916016 H 547.34375 V 16.798828 h -75.58984 v 15.117188 h -75.5918 V 16.798828 H 320.57227 V 31.916016 H 244.98242 V 16.798828 H 169.39258 V 31.916016 H 93.800781 V 16.798828 Z M 313.01367,167.97656 a 52.913381,52.913381 0 0 1 52.91211,52.91406 52.913381,52.913381 0 0 1 -52.91211,52.91407 52.913381,52.913381 0 0 1 -52.91406,-52.91407 52.913381,52.913381 0 0 1 52.91406,-52.91406 z m 922.20313,0.002 a 52.91338,52.91338 0 0 1 52.9141,52.91406 52.91338,52.91338 0 0 1 -52.9141,52.91406 52.91338,52.91338 0 0 1 -52.9121,-52.91406 52.91338,52.91338 0 0 1 52.9121,-52.91406 z M 141.04492,338.05859 a 9.4488186,9.4488186 0 0 1 9.44922,9.44727 9.4488186,9.4488186 0 0 1 -9.44922,9.44922 9.4488186,9.4488186 0 0 1 -9.44726,-9.44922 9.4488186,9.4488186 0 0 1 9.44726,-9.44727 z m 66.14258,0 h 1133.8574 c 41.8772,0 75.5918,33.71268 75.5918,75.58985 v 377.95312 c 0,41.87717 -33.7146,75.58985 -75.5918,75.58985 H 207.1875 c -41.87717,0 -75.58984,-33.71268 -75.58984,-75.58985 V 413.64844 c 0,-41.87717 33.71267,-75.58985 75.58984,-75.58985 z m 1200,0 a 9.4488189,9.4488225 0 0 1 9.4492,9.44727 9.4488189,9.4488225 0 0 1 -9.4492,9.44922 9.4488189,9.4488225 0 0 1 -9.4492,-9.44922 9.4488189,9.4488225 0 0 1 9.4492,-9.44727 z M 141.04492,848.29492 a 9.4488187,9.4488187 0 0 1 9.44922,9.44727 9.4488187,9.4488187 0 0 1 -9.44922,9.44922 9.4488187,9.4488187 0 0 1 -9.44726,-9.44922 9.4488187,9.4488187 0 0 1 9.44726,-9.44727 z m 1266.14258,0 a 9.4488188,9.4488188 0 0 1 9.4492,9.44727 9.4488188,9.4488188 0 0 1 -9.4492,9.44922 9.4488188,9.4488188 0 0 1 -9.4492,-9.44922 9.4488188,9.4488188 0 0 1 9.4492,-9.44727 z"
             transform="matrix(0.26458333,0,0,0.26458333,508.20351,-114.92766)" />
        </g>
        <g
           id="g25780"
           inkscape:label="Front_Mitte"
           transform="translate(12.126626,49.217843)"
           style="stroke-width:0.04;stroke-miterlimit:4;stroke-dasharray:none">
          <path
             id="rect24735"
             style="fill:none;fill-opacity:1;stroke:#000000;stroke-width:0.151181;stroke-miterlimit:4;stroke-dasharray:none;stroke-opacity:1"
             d="m 585.16016,-518.87695 v 90.70898 h 15.11718 v 75.58985 h -15.11718 v 75.58984 h 15.11718 v 75.5918 h -15.11718 v 75.58984 h 15.11718 v 56.693359 H 585.16016 V 6.4765625 h 15.11718 V 63.167969 h -15.11718 v 75.591801 h 15.11718 v 75.58984 h -15.11718 v 75.58984 h 15.11718 v 75.5918 h -15.11718 v 90.70898 H 660.75 v -15.11914 h 75.5918 v 15.11914 h 75.58984 v -15.11914 h 75.58984 v 15.11914 h 75.5918 v -15.11914 h 75.58982 v 15.11914 h 75.5899 v -15.11914 h 75.5898 v 15.11914 h 75.5918 v -15.11914 h 56.6934 v 15.11914 h 37.7949 v -15.11914 h 56.6933 v 15.11914 h 75.5899 v -15.11914 h 75.5898 v 15.11914 h 75.5918 v -15.11914 h 75.5899 v 15.11914 h 75.5918 v -15.11914 h 75.5898 v 15.11914 h 75.5899 v -15.11914 h 75.5918 v 15.11914 h 75.5898 v -90.70898 h -15.1172 v -75.5918 h 15.1172 v -75.58984 h -15.1172 v -75.58984 h 15.1172 V 63.167969 h -15.1172 V 6.4765625 h 15.1172 V -69.113281 h -15.1172 v -56.693359 h 15.1172 v -75.58984 h -15.1172 v -75.5918 h 15.1172 v -75.58984 h -15.1172 v -75.58985 h 15.1172 v -90.70898 h -75.5898 v 15.11718 h -75.5918 v -15.11718 h -75.5899 v 15.11718 h -75.5898 v -15.11718 h -75.5918 v 15.11718 h -75.5899 v -15.11718 h -75.5918 v 15.11718 h -75.5898 v -15.11718 h -75.5899 v 15.11718 h -56.6933 v -15.11718 h -37.7949 v 15.11718 h -56.6934 v -15.11718 h -75.5918 v 15.11718 h -75.5898 v -15.11718 h -75.5899 v 15.11718 h -75.58982 v -15.11718 h -75.5918 v 15.11718 h -75.58984 v -15.11718 H 736.3418 v 15.11718 H 660.75 v -15.11718 z"
             transform="matrix(0.26458333,0,0,0.26458333,318.74827,402.08693)" />
        </g>
      </g>
    </g>
  </g>
</svg>
