<?xml version="1.0" encoding="UTF-8" standalone="no"?>
<!-- Created with Inkscape (http://www.inkscape.org/) -->

<svg
   width="600mm"
   height="420mm"
   viewBox="0 0 600 420"
   version="1.1"
   id="svg5"
   inkscape:version="1.1.2 (b8e25be8, 2022-02-05)"
   sodipodi:docname="Game_Pannel_neu.svg"
   xmlns:inkscape="http://www.inkscape.org/namespaces/inkscape"
   xmlns:sodipodi="http://sodipodi.sourceforge.net/DTD/sodipodi-0.dtd"
   xmlns="http://www.w3.org/2000/svg"
   xmlns:svg="http://www.w3.org/2000/svg">
  <sodipodi:namedview
     id="namedview7"
     pagecolor="#505050"
     bordercolor="#eeeeee"
     borderopacity="1"
     inkscape:pageshadow="0"
     inkscape:pageopacity="0"
     inkscape:pagecheckerboard="0"
     inkscape:document-units="mm"
     showgrid="false"
     inkscape:zoom="0.18032084"
     inkscape:cx="421.47098"
     inkscape:cy="926.12703"
     inkscape:window-width="1680"
     inkscape:window-height="1022"
     inkscape:window-x="0"
     inkscape:window-y="28"
     inkscape:window-maximized="0"
     inkscape:current-layer="g32920" />
  <defs
     id="defs2" />
  <g
     inkscape:label="Ebene 1"
     inkscape:groupmode="layer"
     id="layer1">
    <g
       id="g3378"
       transform="translate(-347.18587,-44.003678)">
      <g
         inkscape:label="Ebene 1"
         id="layer1-2"
         style="display:inline">
        <g
           id="g32920"
           inkscape:label="Controler-Board"
           transform="rotate(90,866.93967,526.54321)">
          <path
             id="rect31677"
             style="fill:none;fill-opacity:1;stroke:#000000;stroke-width:0.151181;stroke-miterlimit:4;stroke-dasharray:none;stroke-opacity:1"
             d="m 292.79688,462.11328 v 15.11914 h -75.58985 v 75.58985 h 15.11719 v 75.59179 h -15.11719 v 75.58985 h 15.11719 v 75.58984 h -15.11719 v 75.5918 h 15.11719 v 75.58984 h -15.11719 v 75.58981 h 15.11719 v 75.5918 h -15.11719 v 75.5899 h 15.11719 v 75.5918 h -15.11719 v 75.5898 h 15.11719 v 75.5899 h -15.11719 v 60.4726 h 75.58985 v 15.1192 h 75.59179 v -15.1192 h 75.58985 v 15.1192 h 75.58984 v -15.1192 h 75.5918 v 15.1192 H 670.75 v -15.1192 h 75.58984 v 15.1192 h 75.5918 v -15.1192 h 75.58984 v 15.1192 h 56.69336 v -15.1192 h 37.79493 v 15.1192 h 56.69333 v -15.1192 h 75.5899 v 15.1192 h 75.5918 v -15.1192 h 75.5898 v 15.1192 h 75.5899 v -15.1192 h 75.5917 v 15.1192 h 75.5899 v -15.1192 h 75.5898 v 15.1192 h 75.5918 v -15.1192 h 75.5899 v -60.4726 h -15.1172 v -75.5899 h 15.1172 v -75.5898 h -15.1172 v -75.5918 h 15.1172 v -75.5899 h -15.1172 v -75.5918 h 15.1172 v -75.58981 h -15.1172 v -75.58984 h 15.1172 v -75.5918 h -15.1172 v -75.58984 h 15.1172 v -75.58985 h -15.1172 v -75.59179 h 15.1172 v -75.58985 h -75.5899 v -15.11914 h -75.5918 v 15.11914 h -75.5898 v -15.11914 h -75.5899 v 15.11914 h -75.5917 v -15.11914 h -75.5899 v 15.11914 h -75.5898 v -15.11914 h -75.5918 v 15.11914 h -75.5899 v -15.11914 h -56.69333 v 15.11914 h -37.79493 v -15.11914 h -56.69336 v 15.11914 h -75.58984 v -15.11914 h -75.5918 v 15.11914 H 670.75 v -15.11914 h -75.58984 v 15.11914 h -75.5918 v -15.11914 h -75.58984 v 15.11914 h -75.5918 V 462.11328 Z M 1608.0723,1104.6348 a 52.913382,52.913382 0 0 1 52.914,52.914 52.913382,52.913382 0 0 1 -52.914,52.9121 52.913382,52.913382 0 0 1 -52.9121,-52.9121 52.913382,52.913382 0 0 1 52.9121,-52.914 z M 496.89258,1263.375 a 52.913386,52.913386 0 0 1 52.91211,52.9141 52.913386,52.913386 0 0 1 -52.91211,52.9121 52.913386,52.913386 0 0 1 -52.91406,-52.9121 52.913386,52.913386 0 0 1 52.91406,-52.9141 z m 317.48047,0 a 52.913385,52.913385 0 0 1 52.91211,52.9141 52.913385,52.913385 0 0 1 -52.91211,52.9121 52.913385,52.913385 0 0 1 -52.91407,-52.9121 52.913385,52.913385 0 0 1 52.91407,-52.9141 z m 317.48045,0 a 52.913384,52.913384 0 0 1 52.9121,52.9141 52.913384,52.913384 0 0 1 -52.9121,52.9121 52.913384,52.913384 0 0 1 -52.914,-52.9121 52.913384,52.913384 0 0 1 52.914,-52.9141 z m 317.4805,0 a 52.913383,52.913383 0 0 1 52.9121,52.9141 52.913383,52.913383 0 0 1 -52.9121,52.9121 52.913383,52.913383 0 0 1 -52.9141,-52.9121 52.913383,52.913383 0 0 1 52.9141,-52.9141 z"
             transform="matrix(0,-0.26458333,0.26458333,0,384.40014,1046.297)" />
        </g>
      </g>
      <g
         id="layer2"
         inkscape:label="Platten_größe"
         style="display:none">
        <rect
           style="fill:#000000;stroke-width:0.0141111"
           id="rect1103"
           width="425.94803"
           height="600.52319"
           x="0.18013105"
           y="0.17834148"
           inkscape:label="platte"
           sodipodi:insensitive="true" />
      </g>
    </g>
  </g>
</svg>
