<?xml version="1.0" encoding="UTF-8" standalone="no"?>
<!-- Created with Inkscape (http://www.inkscape.org/) -->

<svg
   width="600mm"
   height="420mm"
   viewBox="0 0 600 420"
   version="1.1"
   id="svg1466"
   inkscape:version="1.1.2 (b8e25be833, 2022-02-05)"
   sodipodi:docname="Innen_neu.svg"
   xmlns:inkscape="http://www.inkscape.org/namespaces/inkscape"
   xmlns:sodipodi="http://sodipodi.sourceforge.net/DTD/sodipodi-0.dtd"
   xmlns="http://www.w3.org/2000/svg"
   xmlns:svg="http://www.w3.org/2000/svg">
  <sodipodi:namedview
     id="namedview1468"
     pagecolor="#ffffff"
     bordercolor="#666666"
     borderopacity="1.0"
     inkscape:pageshadow="2"
     inkscape:pageopacity="0.0"
     inkscape:pagecheckerboard="0"
     inkscape:document-units="mm"
     showgrid="false"
     inkscape:zoom="1.042995"
     inkscape:cx="1037.8765"
     inkscape:cy="715.24789"
     inkscape:window-width="1920"
     inkscape:window-height="1017"
     inkscape:window-x="-8"
     inkscape:window-y="-8"
     inkscape:window-maximized="1"
     inkscape:current-layer="layer1" />
  <defs
     id="defs1463" />
  <g
     inkscape:label="Ebene 1"
     inkscape:groupmode="layer"
     id="layer1"
     style="display:inline">
    <path
       id="rect2169-1"
       style="display:inline;fill:none;stroke:#000000;stroke-width:0.0533333;stroke-miterlimit:4;stroke-dasharray:none;stroke-opacity:1"
       d="M 605.0332 15.921875 L 605.0332 1493.5664 L 1357.1602 1493.5664 L 1357.1602 1201.1816 L 1360.9395 1201.1816 L 1372.127 1201.1816 L 1372.127 904.86719 L 1360.9395 904.86719 L 1357.1602 904.86719 L 1357.1602 608.55078 L 1372.127 608.55078 L 1372.127 312.23828 L 1360.9395 312.23828 L 1357.1602 312.23828 L 1357.1602 15.923828 L 1360.9395 15.923828 L 1360.9395 15.921875 L 605.0332 15.921875 z "
       transform="scale(0.26458333)" />
    <path
       id="rect2169-9"
       style="display:inline;fill:none;stroke:#000000;stroke-width:0.0533333;stroke-miterlimit:4;stroke-dasharray:none;stroke-opacity:1"
       d="M 1372.127 15.923828 L 1372.127 312.23828 L 1383.3145 312.23828 L 1387.0918 312.23828 L 1387.0918 608.55469 L 1372.127 608.55469 L 1372.127 904.86719 L 1383.3145 904.86719 L 1387.0938 904.86719 L 1387.0938 1201.1816 L 1383.3145 1201.1816 L 1372.127 1201.1816 L 1372.127 1493.6484 L 2218.7402 1493.6484 L 2252.6582 1459.7305 L 2252.6582 49.841797 L 2218.7402 15.923828 L 1372.127 15.923828 z "
       transform="scale(0.26458333)" />
    <path
       id="rect2243-1-0"
       style="display:inline;fill:none;stroke:#000000;stroke-width:0.0141111;stroke-miterlimit:4;stroke-dasharray:none;stroke-opacity:1"
       d="M 156.54135,6.5910761 H 77.467604 V 55.55087 h -0.92605 -2.96002 v 48.95978 h 2.96002 0.92605 v 48.9603 h -0.92605 -2.96002 v 38.11966 l 17.96015,14.07356 h 3.95944 v 0.92654 2.95953 h 18.959596 v -0.076 -2.88354 -1.0025 h 18.96007 v 1.0025 2.88354 0.076 h 23.12003 z" />
    <path
       id="rect2243-1-1"
       style="display:inline;fill:none;stroke:#000000;stroke-width:0.0141111;stroke-miterlimit:4;stroke-dasharray:none;stroke-opacity:1"
       d="M 156.34394,213.90036 H 77.269694 v 48.95979 h -0.92551 -2.96003 v 48.9598 h 2.96003 0.92551 v 48.96032 h -0.92551 -2.96003 v 52.19372 h 21.92009 v 0.92655 2.95952 h 18.959576 v -2.95952 -0.92655 h 18.96009 v 0.92655 2.95952 h 23.12003 z" />
    <rect
       style="display:inline;fill:none;stroke:#000000;stroke-width:0.0141112;stroke-miterlimit:4;stroke-dasharray:none;stroke-opacity:1"
       id="rect2356-9-9-6"
       width="52.120499"
       height="3.9597485"
       x="306.96143"
       y="197.67291" />
    <rect
       style="display:inline;fill:none;stroke:#000000;stroke-width:0.0141112;stroke-miterlimit:4;stroke-dasharray:none;stroke-opacity:1"
       id="rect2356-6-9-0"
       width="48.959999"
       height="3.9597638"
       x="209.04112"
       y="197.67276" />
    <rect
       style="display:inline;fill:none;stroke:#000000;stroke-width:0.0141111;stroke-miterlimit:4;stroke-dasharray:none;stroke-opacity:1"
       id="rect2356-5-6-53-7-2"
       width="3.9598596"
       height="18.959999"
       x="197.67276"
       y="-403.92188"
       transform="rotate(90)" />
    <rect
       style="display:inline;fill:none;stroke:#000000;stroke-width:0.0141111;stroke-miterlimit:4;stroke-dasharray:none;stroke-opacity:1"
       id="rect5008"
       width="3.9598889"
       height="23.120178"
       x="197.67276"
       y="-446.00159"
       transform="rotate(90)" />
    <rect
       style="display:inline;fill:none;stroke:#000000;stroke-width:0.0141112;stroke-miterlimit:4;stroke-dasharray:none;stroke-opacity:1"
       id="rect2356-9-9-6-9"
       width="53.120285"
       height="3.9597638"
       x="306.96155"
       y="280.09302" />
    <rect
       style="display:inline;fill:none;stroke:#000000;stroke-width:0.0141112;stroke-miterlimit:4;stroke-dasharray:none;stroke-opacity:1"
       id="rect2356-6-9-0-5"
       width="48.959999"
       height="3.9597638"
       x="209.04124"
       y="280.0929" />
    <rect
       style="display:inline;fill:none;stroke:#000000;stroke-width:0.0141111;stroke-miterlimit:4;stroke-dasharray:none;stroke-opacity:1"
       id="rect2356-5-6-53-7-2-4"
       width="3.9598596"
       height="18.959999"
       x="280.09302"
       y="-403.92194"
       transform="rotate(90)" />
    <rect
       style="display:inline;fill:none;stroke:#000000;stroke-width:0.0141111;stroke-miterlimit:4;stroke-dasharray:none;stroke-opacity:1"
       id="rect5008-7"
       width="3.9598889"
       height="23.120178"
       x="280.09302"
       y="-446.00165"
       transform="rotate(90)" />
    <rect
       style="display:inline;fill:none;stroke:#000000;stroke-width:0.0141112;stroke-miterlimit:4;stroke-dasharray:none;stroke-opacity:1"
       id="rect2356-9-9-6-2"
       width="53.120285"
       height="3.9597638"
       x="306.96143"
       y="115.75285" />
    <rect
       style="display:inline;fill:none;stroke:#000000;stroke-width:0.0141112;stroke-miterlimit:4;stroke-dasharray:none;stroke-opacity:1"
       id="rect2356-6-9-0-1"
       width="48.959999"
       height="3.9597638"
       x="209.04112"
       y="115.75269" />
    <rect
       style="display:inline;fill:none;stroke:#000000;stroke-width:0.0141111;stroke-miterlimit:4;stroke-dasharray:none;stroke-opacity:1"
       id="rect2356-5-6-53-7-2-2"
       width="3.9598889"
       height="18.959999"
       x="115.75368"
       y="-403.92188"
       transform="rotate(90)" />
    <rect
       style="display:inline;fill:none;stroke:#000000;stroke-width:0.0141111;stroke-miterlimit:4;stroke-dasharray:none;stroke-opacity:1"
       id="rect5008-8"
       width="3.9598889"
       height="23.120178"
       x="115.75368"
       y="-446.00159"
       transform="rotate(90)" />
    <rect
       style="display:inline;fill:none;stroke:#000000;stroke-width:0.0141111;stroke-miterlimit:4;stroke-dasharray:none;stroke-opacity:1"
       id="rect6110"
       width="21.959888"
       height="68.959999"
       x="148.17316"
       y="-469.92206"
       transform="rotate(90)" />
    <rect
       style="display:inline;fill:none;stroke:#000000;stroke-width:0.0141111;stroke-miterlimit:4;stroke-dasharray:none;stroke-opacity:1"
       id="rect6110-0"
       width="21.959888"
       height="68.959999"
       x="230.09317"
       y="-469.92206"
       transform="rotate(90)" />
    <path
       id="rect1814"
       style="fill:none;stroke:#000000;stroke-width:0.0141111;stroke-miterlimit:4;stroke-dasharray:none"
       d="m -122.58368,298.43186 -10.60659,-10.60711 h 21.21318 z" />
    <path
       id="rect1814-9"
       style="fill:none;stroke:#000000;stroke-width:0.0141111;stroke-miterlimit:4;stroke-dasharray:none"
       d="m 348.46745,199.74648 10.60711,-10.60659 v 21.21318 z" />
    <rect
       style="fill:#000000;fill-opacity:1;stroke:#000000;stroke-width:0.1;stroke-miterlimit:4;stroke-dasharray:none"
       id="rect3732"
       width="22"
       height="20"
       x="154.69864"
       y="-347.08173"
       transform="rotate(90)" />
    <rect
       style="fill:#000000;fill-opacity:1;stroke:#000000;stroke-width:0.1;stroke-miterlimit:4;stroke-dasharray:none"
       id="rect3732-8"
       width="22"
       height="20"
       x="-245.10733"
       y="-347.08185"
       transform="matrix(0,-1,-1,0,0,0)" />
    <path
       id="path1494-7"
       style="fill:none;fill-opacity:1;stroke:#000000;stroke-width:0.0141111;stroke-miterlimit:4;stroke-dasharray:none"
       d="M 69.523954,199.56923 H 58.524104 A 26.999999,26.999999 0 0 0 31.523684,172.56932 26.999999,26.999999 0 0 0 4.5465238,199.27777 h 2.82929 a 23.999999,23.999999 0 0 1 23.9985302,-23.98251 23.999999,23.999999 0 0 1 23.99957,24.00008 23.999999,23.999999 0 0 1 -23.99957,24.00009 23.999999,23.999999 0 0 1 -23.9659802,-22.86889 h -2.81688 a 26.999999,26.999999 0 0 0 26.9322002,26.14259 26.999999,26.999999 0 0 0 5.3e-4,0 v 10.99984 a 37.999995,37.999995 0 0 0 37.99974,-37.99974 z m -37.98114,-37.99975 a 37.999995,37.999995 0 0 0 -0.0191,-5.3e-4 37.999995,37.999995 0 0 0 -0.0191,5.3e-4 h 0.0191 z" />
    <rect
       style="display:inline;fill:none;fill-opacity:1;stroke:#000000;stroke-width:0.0141111;stroke-miterlimit:4;stroke-dasharray:none"
       id="rect4243"
       width="3.9598985"
       height="77.381874"
       x="347.75662"
       y="442.68805" />
  </g>
</svg>
