<?xml version="1.0" encoding="UTF-8" standalone="no"?>
<!-- Created with Inkscape (http://www.inkscape.org/) -->

<svg
   width="210mm"
   height="297mm"
   viewBox="0 0 210 297"
   version="1.1"
   id="svg5"
   inkscape:version="1.1.2 (b8e25be8, 2022-02-05)"
   sodipodi:docname="Dreher.svg"
   xmlns:inkscape="http://www.inkscape.org/namespaces/inkscape"
   xmlns:sodipodi="http://sodipodi.sourceforge.net/DTD/sodipodi-0.dtd"
   xmlns="http://www.w3.org/2000/svg"
   xmlns:svg="http://www.w3.org/2000/svg">
  <sodipodi:namedview
     id="namedview7"
     pagecolor="#505050"
     bordercolor="#eeeeee"
     borderopacity="1"
     inkscape:pageshadow="0"
     inkscape:pageopacity="0"
     inkscape:pagecheckerboard="0"
     inkscape:document-units="mm"
     showgrid="false"
     inkscape:zoom="2.3272673"
     inkscape:cx="521.21216"
     inkscape:cy="212.69581"
     inkscape:window-width="1680"
     inkscape:window-height="1050"
     inkscape:window-x="0"
     inkscape:window-y="0"
     inkscape:window-maximized="0"
     inkscape:current-layer="layer1" />
  <defs
     id="defs2" />
  <g
     inkscape:label="Dreher"
     inkscape:groupmode="layer"
     id="layer1">
    <path
       id="path1494-7"
       style="fill:none;fill-opacity:1;stroke:#000000;stroke-width:0.05333333;stroke-miterlimit:4;stroke-dasharray:none"
       d="M 579.24805,10.798828 V 52.373047 A 102.04724,102.04724 0 0 0 477.20117,154.42188 102.04724,102.04724 0 0 0 578.14648,256.38281 v -10.69336 a 90.708658,90.708658 0 0 1 -90.64257,-90.70312 90.708658,90.708658 0 0 1 90.70898,-90.707033 90.708658,90.708658 0 0 1 90.70899,90.707033 90.708658,90.708658 0 0 1 -86.4336,90.58008 v 10.64648 a 102.04724,102.04724 0 0 0 98.80664,-101.79101 102.04724,102.04724 0 0 0 0,-0.002 h 41.57422 A 143.62203,143.62203 0 0 0 579.24805,10.798828 Z M 435.62695,154.34961 a 143.62203,143.62203 0 0 0 -0.002,0.0723 143.62203,143.62203 0 0 0 0.002,0.0723 v -0.0723 z"
       transform="scale(0.26458333)" />
  </g>
</svg>
