<?xml version="1.0" encoding="UTF-8" standalone="no"?>
<!-- Created with Inkscape (http://www.inkscape.org/) -->

<svg
   width="420mm"
   height="600mm"
   viewBox="0 0 420 600"
   version="1.1"
   id="svg5"
   inkscape:version="1.1.2 (b8e25be8, 2022-02-05)"
   sodipodi:docname="Top_And_Hole.svg"
   xmlns:inkscape="http://www.inkscape.org/namespaces/inkscape"
   xmlns:sodipodi="http://sodipodi.sourceforge.net/DTD/sodipodi-0.dtd"
   xmlns="http://www.w3.org/2000/svg"
   xmlns:svg="http://www.w3.org/2000/svg">
  <sodipodi:namedview
     id="namedview7"
     pagecolor="#505050"
     bordercolor="#eeeeee"
     borderopacity="1"
     inkscape:pageshadow="0"
     inkscape:pageopacity="0"
     inkscape:pagecheckerboard="0"
     inkscape:document-units="mm"
     showgrid="false"
     inkscape:zoom="0.356274"
     inkscape:cx="1063.788"
     inkscape:cy="1066.5948"
     inkscape:window-width="1920"
     inkscape:window-height="1080"
     inkscape:window-x="1440"
     inkscape:window-y="0"
     inkscape:window-maximized="0"
     inkscape:current-layer="layer1-2" />
  <defs
     id="defs2" />
  <g
     inkscape:label="Ebene 1"
     id="layer1">
    <g
       id="g3378"
       transform="translate(-347.18587,-44.003678)">
      <g
         id="layer2"
         inkscape:label="Platten_größe"
         style="display:inline">
        <rect
           style="display:none;fill:#000000;fill-opacity:1;stroke:#000000;stroke-width:0.0141111;stroke-opacity:1"
           id="rect1103"
           width="425.94803"
           height="600.52319"
           x="0.18013105"
           y="0.17834148"
           inkscape:label="platte"
           sodipodi:insensitive="true" />
      </g>
      <g
         inkscape:label="Ebene 1"
         id="layer1-2"
         style="display:inline"
         transform="translate(-133.69421,-5.5705922)">
        <g
           id="g30413"
           inkscape:label="Oben"
           transform="rotate(-90,631.24145,-261.70756)"
           style="stroke:#000000;stroke-opacity:1;stroke-width:0.04;stroke-miterlimit:4;stroke-dasharray:none">
          <path
             id="rect27413"
             style="fill:none;fill-opacity:1;stroke:#000000;stroke-width:0.1511811;stroke-miterlimit:4;stroke-dasharray:none;stroke-opacity:1"
             d="m -1327.2812,-2309.6191 v 75.5918 h -15.1172 v 75.5898 h 15.1172 v 75.5898 h -15.1172 v 75.5918 h 15.1172 v 75.5899 h -15.1172 v 75.5898 h 15.1172 v 75.5918 h -15.1172 v 75.5899 h 15.1172 v 75.5918 h -15.1172 v 56.6914 h 15.1172 v 37.7949 h -15.1172 v 56.6953 h 15.1172 v 75.5899 h -15.1172 v 75.5898 h 15.1172 v 75.5898 h -15.1172 v 75.5918 h 15.1172 v 75.5899 h -15.1172 v 75.5898 h 15.1172 v 75.59182 h -15.1172 v 75.58984 h 15.1172 v 75.58985 h 60.4726 v -15.11719 h 75.5918 v 15.11719 h 75.5898 v -15.11719 h 75.5899 v 15.11719 h 75.59179 v -15.11719 h 75.58984 v 15.11719 h 75.5918 v -15.11719 h 56.6914 v 15.11719 h 75.5918 v -15.11719 h 56.69141 v 15.11719 h 75.59179 v -15.11719 h 75.58985 v 15.11719 h 75.5918 v -15.11719 h 75.58984 v 15.11719 h 75.58984 v -15.11719 h 75.5918 v 15.11719 h 60.47266 v -75.58985 h 15.117183 v -75.58984 h -15.117183 v -75.59182 h 15.117183 v -75.5898 h -15.117183 v -75.5899 h 15.117183 v -75.5918 h -15.117183 v -75.5898 h 15.117183 v -75.5898 h -15.117183 v -75.5899 h 15.117183 v -56.6953 h -15.117183 v -37.7949 h 15.117183 v -56.6914 h -15.117183 v -75.5918 h 15.117183 v -75.5899 h -15.117183 v -75.5918 h 15.117183 v -75.5898 h -15.117183 v -75.5899 h 15.117183 v -75.5918 h -15.117183 v -75.5898 h 15.117183 v -75.5898 h -15.117183 v -75.5918 h -60.47266 v 15.1191 h -75.5918 v -15.1191 h -75.58984 v 15.1191 h -75.58984 v -15.1191 h -75.5918 v 15.1191 h -75.58985 v -15.1191 h -75.59179 v 15.1191 h -56.69141 v -15.1191 h -75.5918 v 15.1191 h -56.6914 v -15.1191 h -75.5918 v 15.1191 h -75.58984 v -15.1191 h -75.58989 v 15.1191 h -75.5918 v -15.1191 h -75.5898 v 15.1191 h -75.5918 v -15.1191 z"
             transform="matrix(-0.26458333,0,0,-0.26458333,-39.28187,-618.13412)" />
        </g>
        <g
           id="g34135"
           transform="rotate(90,1055.5986,528.62194)"
           inkscape:label="Ausgabe"
           style="display:inline;stroke:#000000;stroke-opacity:1;stroke-width:0.04;stroke-miterlimit:4;stroke-dasharray:none">
          <path
             id="rect32944"
             style="fill:none;fill-opacity:1;stroke:#000000;stroke-width:0.04;stroke-miterlimit:4;stroke-dasharray:none;stroke-opacity:1"
             d="m 913.26201,1078.3195 h 4.00026 v 19.9998 5e-4 h 16.00007 v -5e-4 -3.9997 h 19.9998 v 3.9997 5e-4 H 973.263 v -5e-4 -3.9997 h 21.99968 v 3.9997 5e-4 h 19.99982 v -5e-4 -3.9997 h 22.0002 v 3.9997 5e-4 h 20.2174 v -5e-4 h -0.2176 v -3.9997 h 0.2176 19.7823 0.218 v 4.0002 h 15.782 v -5e-4 -19.9998 h 3.9998 v -19.9998 h -3.9998 v -20.0003 h 3.9998 v -19.9999 h -3.9998 v -19.99977 h 3.9998 v -20.00031 h -3.9998 v -19.99983 h 3.9998 v -20.00033 h -3.9998 v -19.9998 h 3.9998 v -15.00013 h -3.9998 v -9.9999 h 3.9998 v -15.0001 h -3.9998 V 858.3195 h 3.9998 v -19.9998 h -3.9998 v -20.00033 h 3.9998 v -19.99983 h -3.9998 v -20.00033 h 3.9998 v -19.9998 h -3.9998 v -19.99983 h 3.9998 v -20.00033 h -3.9998 v -19.9998 h -16 v 3.99976 h -19.9999 v -3.99976 h -19.9998 v 3.99976 h -22.0002 v -3.99976 h -19.99982 v 3.99976 h -22.00021 v -3.99976 h -20.00033 v 4.00026 h -19.9998 v -4.00026 h -16.00007 v 19.9998 h -4.00026 v 20.00033 h 4.00026 v 19.99983 h -4.00026 v 19.9998 h 4.00026 v 20.00033 h -4.00026 v 19.99983 h 4.00026 v 20.00033 h -4.00026 v 19.9998 h 4.00026 v 19.99983 h -4.00026 v 15.0001 h 4.00026 v 9.9999 h -4.00026 v 15.00013 h 4.00026 v 19.9998 h -4.00026 v 20.00033 h 4.00026 v 19.99983 h -4.00026 v 20.00031 h 4.00026 v 19.99977 h -4.00026 v 19.9999 h 4.00026 v 20.0003 h -4.00026 z m 20.00033,-19.9998 V 738.31958 c 0,-11.07998 8.91982,-19.9998 19.9998,-19.9998 h 106.00026 c 11.0797,0 19.9998,8.91982 19.9998,19.9998 v 320.00012 c 0,11.08 -8.9201,19.9998 -19.9998,19.9998 H 953.26214 c -11.07998,0 -19.9998,-8.9198 -19.9998,-19.9998 z"
             inkscape:label="ausgabe" />
        </g>
      </g>
    </g>
  </g>
</svg>
